<mxfile host="app.diagrams.net" agent="Mozilla/5.0 (Windows NT 10.0; Win64; x64) AppleWebKit/537.36 (KHTML, like Gecko) Chrome/136.0.0.0 Safari/537.36" version="26.1.0">
  <diagram id="C5RBs43oDa-KdzZeNtuy" name="Page-1">
    <mxGraphModel dx="1105" dy="1754" grid="1" gridSize="10" guides="1" tooltips="1" connect="1" arrows="1" fold="1" page="1" pageScale="1" pageWidth="827" pageHeight="1169" math="0" shadow="0">
      <root>
        <mxCell id="WIyWlLk6GJQsqaUBKTNV-0" />
        <mxCell id="WIyWlLk6GJQsqaUBKTNV-1" parent="WIyWlLk6GJQsqaUBKTNV-0" />
        <mxCell id="qWAOJMCIj2LOfA6qALYt-4" style="edgeStyle=orthogonalEdgeStyle;rounded=0;orthogonalLoop=1;jettySize=auto;html=1;entryX=0.5;entryY=0;entryDx=0;entryDy=0;" edge="1" parent="WIyWlLk6GJQsqaUBKTNV-1" source="qWAOJMCIj2LOfA6qALYt-1" target="qWAOJMCIj2LOfA6qALYt-3">
          <mxGeometry relative="1" as="geometry" />
        </mxCell>
        <mxCell id="qWAOJMCIj2LOfA6qALYt-1" value="tjek om play knap trykkes" style="shape=parallelogram;perimeter=parallelogramPerimeter;whiteSpace=wrap;html=1;fixedSize=1;" vertex="1" parent="WIyWlLk6GJQsqaUBKTNV-1">
          <mxGeometry x="345" y="350" width="130" height="60" as="geometry" />
        </mxCell>
        <mxCell id="qWAOJMCIj2LOfA6qALYt-6" style="edgeStyle=orthogonalEdgeStyle;rounded=0;orthogonalLoop=1;jettySize=auto;html=1;" edge="1" parent="WIyWlLk6GJQsqaUBKTNV-1" source="qWAOJMCIj2LOfA6qALYt-3" target="qWAOJMCIj2LOfA6qALYt-5">
          <mxGeometry relative="1" as="geometry" />
        </mxCell>
        <mxCell id="qWAOJMCIj2LOfA6qALYt-9" style="edgeStyle=orthogonalEdgeStyle;rounded=0;orthogonalLoop=1;jettySize=auto;html=1;entryX=0;entryY=0.5;entryDx=0;entryDy=0;" edge="1" parent="WIyWlLk6GJQsqaUBKTNV-1" source="qWAOJMCIj2LOfA6qALYt-3" target="qWAOJMCIj2LOfA6qALYt-8">
          <mxGeometry relative="1" as="geometry" />
        </mxCell>
        <mxCell id="qWAOJMCIj2LOfA6qALYt-3" value="er trykket" style="rhombus;whiteSpace=wrap;html=1;" vertex="1" parent="WIyWlLk6GJQsqaUBKTNV-1">
          <mxGeometry x="350" y="460" width="120" height="80" as="geometry" />
        </mxCell>
        <mxCell id="qWAOJMCIj2LOfA6qALYt-15" style="edgeStyle=orthogonalEdgeStyle;rounded=0;orthogonalLoop=1;jettySize=auto;html=1;entryX=0.5;entryY=0;entryDx=0;entryDy=0;" edge="1" parent="WIyWlLk6GJQsqaUBKTNV-1" source="qWAOJMCIj2LOfA6qALYt-5" target="qWAOJMCIj2LOfA6qALYt-14">
          <mxGeometry relative="1" as="geometry" />
        </mxCell>
        <mxCell id="qWAOJMCIj2LOfA6qALYt-5" value="Tjek om quit knap trykkes" style="shape=parallelogram;perimeter=parallelogramPerimeter;whiteSpace=wrap;html=1;fixedSize=1;" vertex="1" parent="WIyWlLk6GJQsqaUBKTNV-1">
          <mxGeometry x="345" y="590" width="130" height="60" as="geometry" />
        </mxCell>
        <mxCell id="qWAOJMCIj2LOfA6qALYt-7" value="Nej" style="text;html=1;align=center;verticalAlign=middle;resizable=0;points=[];autosize=1;strokeColor=none;fillColor=none;" vertex="1" parent="WIyWlLk6GJQsqaUBKTNV-1">
          <mxGeometry x="401" y="533" width="40" height="30" as="geometry" />
        </mxCell>
        <mxCell id="qWAOJMCIj2LOfA6qALYt-37" style="edgeStyle=orthogonalEdgeStyle;rounded=0;orthogonalLoop=1;jettySize=auto;html=1;entryX=1;entryY=0.5;entryDx=0;entryDy=0;" edge="1" parent="WIyWlLk6GJQsqaUBKTNV-1" source="qWAOJMCIj2LOfA6qALYt-8" target="qWAOJMCIj2LOfA6qALYt-12">
          <mxGeometry relative="1" as="geometry">
            <Array as="points">
              <mxPoint x="590" y="850" />
            </Array>
          </mxGeometry>
        </mxCell>
        <mxCell id="qWAOJMCIj2LOfA6qALYt-8" value="start&lt;div&gt;blackjack.py&lt;/div&gt;" style="rounded=0;whiteSpace=wrap;html=1;" vertex="1" parent="WIyWlLk6GJQsqaUBKTNV-1">
          <mxGeometry x="530" y="470" width="120" height="60" as="geometry" />
        </mxCell>
        <mxCell id="qWAOJMCIj2LOfA6qALYt-10" value="ja" style="text;html=1;align=center;verticalAlign=middle;resizable=0;points=[];autosize=1;strokeColor=none;fillColor=none;" vertex="1" parent="WIyWlLk6GJQsqaUBKTNV-1">
          <mxGeometry x="477" y="476" width="30" height="30" as="geometry" />
        </mxCell>
        <mxCell id="qWAOJMCIj2LOfA6qALYt-12" value="Luk&amp;nbsp;&lt;div&gt;menu.py&lt;/div&gt;" style="rounded=1;whiteSpace=wrap;html=1;" vertex="1" parent="WIyWlLk6GJQsqaUBKTNV-1">
          <mxGeometry x="350" y="820" width="120" height="60" as="geometry" />
        </mxCell>
        <mxCell id="qWAOJMCIj2LOfA6qALYt-16" style="edgeStyle=orthogonalEdgeStyle;rounded=0;orthogonalLoop=1;jettySize=auto;html=1;entryX=0.5;entryY=0;entryDx=0;entryDy=0;" edge="1" parent="WIyWlLk6GJQsqaUBKTNV-1" source="qWAOJMCIj2LOfA6qALYt-14" target="qWAOJMCIj2LOfA6qALYt-12">
          <mxGeometry relative="1" as="geometry" />
        </mxCell>
        <mxCell id="qWAOJMCIj2LOfA6qALYt-21" style="edgeStyle=orthogonalEdgeStyle;rounded=0;orthogonalLoop=1;jettySize=auto;html=1;entryX=1;entryY=0.5;entryDx=0;entryDy=0;" edge="1" parent="WIyWlLk6GJQsqaUBKTNV-1" source="qWAOJMCIj2LOfA6qALYt-14" target="qWAOJMCIj2LOfA6qALYt-20">
          <mxGeometry relative="1" as="geometry" />
        </mxCell>
        <mxCell id="qWAOJMCIj2LOfA6qALYt-14" value="er trykket" style="rhombus;whiteSpace=wrap;html=1;" vertex="1" parent="WIyWlLk6GJQsqaUBKTNV-1">
          <mxGeometry x="350" y="690" width="120" height="80" as="geometry" />
        </mxCell>
        <mxCell id="qWAOJMCIj2LOfA6qALYt-17" value="ja" style="text;html=1;align=center;verticalAlign=middle;resizable=0;points=[];autosize=1;strokeColor=none;fillColor=none;" vertex="1" parent="WIyWlLk6GJQsqaUBKTNV-1">
          <mxGeometry x="405" y="768" width="30" height="30" as="geometry" />
        </mxCell>
        <mxCell id="qWAOJMCIj2LOfA6qALYt-23" style="edgeStyle=orthogonalEdgeStyle;rounded=0;orthogonalLoop=1;jettySize=auto;html=1;entryX=0;entryY=0.5;entryDx=0;entryDy=0;" edge="1" parent="WIyWlLk6GJQsqaUBKTNV-1" source="qWAOJMCIj2LOfA6qALYt-20" target="qWAOJMCIj2LOfA6qALYt-12">
          <mxGeometry relative="1" as="geometry">
            <Array as="points">
              <mxPoint x="250" y="850" />
            </Array>
          </mxGeometry>
        </mxCell>
        <mxCell id="qWAOJMCIj2LOfA6qALYt-26" style="edgeStyle=orthogonalEdgeStyle;rounded=0;orthogonalLoop=1;jettySize=auto;html=1;entryX=0;entryY=0.5;entryDx=0;entryDy=0;" edge="1" parent="WIyWlLk6GJQsqaUBKTNV-1" source="qWAOJMCIj2LOfA6qALYt-20" target="qWAOJMCIj2LOfA6qALYt-1">
          <mxGeometry relative="1" as="geometry">
            <Array as="points">
              <mxPoint x="100" y="730" />
              <mxPoint x="100" y="380" />
            </Array>
          </mxGeometry>
        </mxCell>
        <mxCell id="qWAOJMCIj2LOfA6qALYt-20" value="run == true" style="rhombus;whiteSpace=wrap;html=1;" vertex="1" parent="WIyWlLk6GJQsqaUBKTNV-1">
          <mxGeometry x="190" y="690" width="120" height="80" as="geometry" />
        </mxCell>
        <mxCell id="qWAOJMCIj2LOfA6qALYt-22" value="nej" style="text;html=1;align=center;verticalAlign=middle;resizable=0;points=[];autosize=1;strokeColor=none;fillColor=none;" vertex="1" parent="WIyWlLk6GJQsqaUBKTNV-1">
          <mxGeometry x="312" y="723" width="40" height="30" as="geometry" />
        </mxCell>
        <mxCell id="qWAOJMCIj2LOfA6qALYt-27" value="Ja" style="text;html=1;align=center;verticalAlign=middle;resizable=0;points=[];autosize=1;strokeColor=none;fillColor=none;" vertex="1" parent="WIyWlLk6GJQsqaUBKTNV-1">
          <mxGeometry x="124" y="706" width="40" height="30" as="geometry" />
        </mxCell>
        <mxCell id="qWAOJMCIj2LOfA6qALYt-32" style="edgeStyle=orthogonalEdgeStyle;rounded=0;orthogonalLoop=1;jettySize=auto;html=1;" edge="1" parent="WIyWlLk6GJQsqaUBKTNV-1" source="qWAOJMCIj2LOfA6qALYt-28" target="qWAOJMCIj2LOfA6qALYt-29">
          <mxGeometry relative="1" as="geometry" />
        </mxCell>
        <mxCell id="qWAOJMCIj2LOfA6qALYt-28" value="Lav Play knap" style="rounded=0;whiteSpace=wrap;html=1;" vertex="1" parent="WIyWlLk6GJQsqaUBKTNV-1">
          <mxGeometry x="350" y="170" width="120" height="60" as="geometry" />
        </mxCell>
        <mxCell id="qWAOJMCIj2LOfA6qALYt-31" style="edgeStyle=orthogonalEdgeStyle;rounded=0;orthogonalLoop=1;jettySize=auto;html=1;" edge="1" parent="WIyWlLk6GJQsqaUBKTNV-1" source="qWAOJMCIj2LOfA6qALYt-29" target="qWAOJMCIj2LOfA6qALYt-1">
          <mxGeometry relative="1" as="geometry" />
        </mxCell>
        <mxCell id="qWAOJMCIj2LOfA6qALYt-29" value="lav Quit knap" style="whiteSpace=wrap;html=1;" vertex="1" parent="WIyWlLk6GJQsqaUBKTNV-1">
          <mxGeometry x="350" y="270" width="120" height="60" as="geometry" />
        </mxCell>
        <mxCell id="qWAOJMCIj2LOfA6qALYt-33" style="edgeStyle=orthogonalEdgeStyle;rounded=0;orthogonalLoop=1;jettySize=auto;html=1;entryX=0.5;entryY=0;entryDx=0;entryDy=0;" edge="1" parent="WIyWlLk6GJQsqaUBKTNV-1" source="qWAOJMCIj2LOfA6qALYt-30" target="qWAOJMCIj2LOfA6qALYt-28">
          <mxGeometry relative="1" as="geometry" />
        </mxCell>
        <mxCell id="qWAOJMCIj2LOfA6qALYt-30" value="byg GUI fladen" style="rounded=0;whiteSpace=wrap;html=1;" vertex="1" parent="WIyWlLk6GJQsqaUBKTNV-1">
          <mxGeometry x="350" y="80" width="120" height="60" as="geometry" />
        </mxCell>
        <mxCell id="qWAOJMCIj2LOfA6qALYt-35" style="edgeStyle=orthogonalEdgeStyle;rounded=0;orthogonalLoop=1;jettySize=auto;html=1;entryX=0.5;entryY=0;entryDx=0;entryDy=0;" edge="1" parent="WIyWlLk6GJQsqaUBKTNV-1" source="qWAOJMCIj2LOfA6qALYt-34" target="qWAOJMCIj2LOfA6qALYt-30">
          <mxGeometry relative="1" as="geometry" />
        </mxCell>
        <mxCell id="qWAOJMCIj2LOfA6qALYt-34" value="start&amp;nbsp;&lt;div&gt;menu.py&lt;/div&gt;" style="rounded=1;whiteSpace=wrap;html=1;" vertex="1" parent="WIyWlLk6GJQsqaUBKTNV-1">
          <mxGeometry x="350" y="-20" width="120" height="60" as="geometry" />
        </mxCell>
        <mxCell id="qWAOJMCIj2LOfA6qALYt-36" value="nej" style="text;html=1;align=center;verticalAlign=middle;resizable=0;points=[];autosize=1;strokeColor=none;fillColor=none;" vertex="1" parent="WIyWlLk6GJQsqaUBKTNV-1">
          <mxGeometry x="240" y="768" width="40" height="30" as="geometry" />
        </mxCell>
      </root>
    </mxGraphModel>
  </diagram>
</mxfile>
